<mxfile host="app.diagrams.net" modified="2024-04-12T14:29:02.099Z" agent="Mozilla/5.0 (Windows NT 10.0; Win64; x64) AppleWebKit/537.36 (KHTML, like Gecko) Chrome/123.0.0.0 Safari/537.36" etag="IAkj7ezTZoeAQmGUjvCG" version="24.2.3" type="github" pages="2">
  <diagram name="Level 1" id="GzYFLfNZ1xBHJlDTA4yn">
    <mxGraphModel dx="1434" dy="738" grid="1" gridSize="10" guides="1" tooltips="1" connect="1" arrows="1" fold="1" page="1" pageScale="1" pageWidth="850" pageHeight="1100" math="0" shadow="0">
      <root>
        <mxCell id="0" />
        <mxCell id="1" parent="0" />
        <mxCell id="UOtR4pTKD2B5xCV6HIKC-7" value="" style="edgeStyle=orthogonalEdgeStyle;rounded=0;orthogonalLoop=1;jettySize=auto;html=1;" edge="1" parent="1" source="UOtR4pTKD2B5xCV6HIKC-1" target="UOtR4pTKD2B5xCV6HIKC-6">
          <mxGeometry relative="1" as="geometry" />
        </mxCell>
        <mxCell id="UOtR4pTKD2B5xCV6HIKC-1" value="Agent UI" style="rounded=0;whiteSpace=wrap;html=1;" vertex="1" parent="1">
          <mxGeometry x="120" y="70" width="90" height="60" as="geometry" />
        </mxCell>
        <mxCell id="UOtR4pTKD2B5xCV6HIKC-3" value="" style="edgeStyle=orthogonalEdgeStyle;rounded=0;orthogonalLoop=1;jettySize=auto;html=1;" edge="1" parent="1" source="UOtR4pTKD2B5xCV6HIKC-2" target="UOtR4pTKD2B5xCV6HIKC-1">
          <mxGeometry relative="1" as="geometry" />
        </mxCell>
        <mxCell id="UOtR4pTKD2B5xCV6HIKC-2" value="Agent" style="shape=umlActor;verticalLabelPosition=bottom;verticalAlign=top;html=1;outlineConnect=0;" vertex="1" parent="1">
          <mxGeometry x="20" y="70" width="30" height="60" as="geometry" />
        </mxCell>
        <mxCell id="UOtR4pTKD2B5xCV6HIKC-10" value="" style="edgeStyle=orthogonalEdgeStyle;rounded=0;orthogonalLoop=1;jettySize=auto;html=1;" edge="1" parent="1" source="UOtR4pTKD2B5xCV6HIKC-6" target="UOtR4pTKD2B5xCV6HIKC-9">
          <mxGeometry relative="1" as="geometry" />
        </mxCell>
        <mxCell id="UOtR4pTKD2B5xCV6HIKC-6" value="Account Boarding Service" style="rounded=0;whiteSpace=wrap;html=1;" vertex="1" parent="1">
          <mxGeometry x="270" y="70" width="90" height="60" as="geometry" />
        </mxCell>
        <mxCell id="UOtR4pTKD2B5xCV6HIKC-8" value="Component Dig" style="text;html=1;align=center;verticalAlign=middle;whiteSpace=wrap;rounded=0;" vertex="1" parent="1">
          <mxGeometry y="20" width="100" height="30" as="geometry" />
        </mxCell>
        <mxCell id="UOtR4pTKD2B5xCV6HIKC-9" value="Rules Processor Service" style="whiteSpace=wrap;html=1;rounded=0;" vertex="1" parent="1">
          <mxGeometry x="440" y="70" width="120" height="60" as="geometry" />
        </mxCell>
        <mxCell id="UOtR4pTKD2B5xCV6HIKC-33" style="edgeStyle=orthogonalEdgeStyle;rounded=0;orthogonalLoop=1;jettySize=auto;html=1;exitX=0.5;exitY=0;exitDx=0;exitDy=0;" edge="1" parent="1" source="UOtR4pTKD2B5xCV6HIKC-13" target="UOtR4pTKD2B5xCV6HIKC-9">
          <mxGeometry relative="1" as="geometry" />
        </mxCell>
        <mxCell id="UOtR4pTKD2B5xCV6HIKC-13" value="Orchestrator Layer" style="whiteSpace=wrap;html=1;" vertex="1" parent="1">
          <mxGeometry x="440" y="250" width="120" height="60" as="geometry" />
        </mxCell>
        <mxCell id="UOtR4pTKD2B5xCV6HIKC-15" value="SSA Verification Service" style="whiteSpace=wrap;html=1;" vertex="1" parent="1">
          <mxGeometry x="680" y="250" width="120" height="60" as="geometry" />
        </mxCell>
        <mxCell id="UOtR4pTKD2B5xCV6HIKC-20" style="edgeStyle=orthogonalEdgeStyle;rounded=0;orthogonalLoop=1;jettySize=auto;html=1;" edge="1" parent="1" source="UOtR4pTKD2B5xCV6HIKC-17" target="UOtR4pTKD2B5xCV6HIKC-19">
          <mxGeometry relative="1" as="geometry" />
        </mxCell>
        <mxCell id="UOtR4pTKD2B5xCV6HIKC-17" value="Person Data Service" style="whiteSpace=wrap;html=1;" vertex="1" parent="1">
          <mxGeometry x="440" y="460" width="120" height="60" as="geometry" />
        </mxCell>
        <mxCell id="UOtR4pTKD2B5xCV6HIKC-19" value="Person DB" style="shape=cylinder3;whiteSpace=wrap;html=1;boundedLbl=1;backgroundOutline=1;size=15;" vertex="1" parent="1">
          <mxGeometry x="720" y="450" width="60" height="80" as="geometry" />
        </mxCell>
        <mxCell id="UOtR4pTKD2B5xCV6HIKC-21" value="" style="endArrow=classic;startArrow=classic;html=1;rounded=0;entryX=0;entryY=0.5;entryDx=0;entryDy=0;exitX=1;exitY=0.5;exitDx=0;exitDy=0;" edge="1" parent="1" source="UOtR4pTKD2B5xCV6HIKC-13" target="UOtR4pTKD2B5xCV6HIKC-15">
          <mxGeometry width="50" height="50" relative="1" as="geometry">
            <mxPoint x="570" y="290" as="sourcePoint" />
            <mxPoint x="610" y="240" as="targetPoint" />
          </mxGeometry>
        </mxCell>
        <mxCell id="UOtR4pTKD2B5xCV6HIKC-24" value="" style="endArrow=classic;startArrow=classic;html=1;rounded=0;entryX=0.5;entryY=1;entryDx=0;entryDy=0;exitX=0.5;exitY=0;exitDx=0;exitDy=0;" edge="1" parent="1" source="UOtR4pTKD2B5xCV6HIKC-17" target="UOtR4pTKD2B5xCV6HIKC-13">
          <mxGeometry width="50" height="50" relative="1" as="geometry">
            <mxPoint x="450" y="370" as="sourcePoint" />
            <mxPoint x="500" y="320" as="targetPoint" />
          </mxGeometry>
        </mxCell>
        <mxCell id="UOtR4pTKD2B5xCV6HIKC-25" value="" style="endArrow=classic;startArrow=classic;html=1;rounded=0;entryX=0.75;entryY=1;entryDx=0;entryDy=0;exitX=0;exitY=0.5;exitDx=0;exitDy=0;exitPerimeter=0;" edge="1" parent="1" source="UOtR4pTKD2B5xCV6HIKC-26" target="UOtR4pTKD2B5xCV6HIKC-13">
          <mxGeometry width="50" height="50" relative="1" as="geometry">
            <mxPoint x="690" y="380" as="sourcePoint" />
            <mxPoint x="520" y="320" as="targetPoint" />
            <Array as="points">
              <mxPoint x="530" y="380" />
            </Array>
          </mxGeometry>
        </mxCell>
        <mxCell id="UOtR4pTKD2B5xCV6HIKC-26" value="Redis" style="shape=cylinder3;whiteSpace=wrap;html=1;boundedLbl=1;backgroundOutline=1;size=15;" vertex="1" parent="1">
          <mxGeometry x="720" y="340" width="60" height="80" as="geometry" />
        </mxCell>
        <mxCell id="UOtR4pTKD2B5xCV6HIKC-29" style="edgeStyle=orthogonalEdgeStyle;rounded=0;orthogonalLoop=1;jettySize=auto;html=1;exitX=0.5;exitY=0.5;exitDx=0;exitDy=0;exitPerimeter=0;entryX=0;entryY=0.5;entryDx=0;entryDy=0;" edge="1" parent="1" target="UOtR4pTKD2B5xCV6HIKC-28">
          <mxGeometry relative="1" as="geometry">
            <mxPoint x="45" y="380" as="sourcePoint" />
          </mxGeometry>
        </mxCell>
        <mxCell id="UOtR4pTKD2B5xCV6HIKC-27" value="End User" style="shape=umlActor;verticalLabelPosition=bottom;verticalAlign=top;html=1;outlineConnect=0;" vertex="1" parent="1">
          <mxGeometry x="20" y="350" width="30" height="60" as="geometry" />
        </mxCell>
        <mxCell id="UOtR4pTKD2B5xCV6HIKC-30" style="edgeStyle=orthogonalEdgeStyle;rounded=0;orthogonalLoop=1;jettySize=auto;html=1;entryX=0;entryY=0.5;entryDx=0;entryDy=0;" edge="1" parent="1" source="UOtR4pTKD2B5xCV6HIKC-28" target="UOtR4pTKD2B5xCV6HIKC-13">
          <mxGeometry relative="1" as="geometry">
            <Array as="points">
              <mxPoint x="310" y="380" />
              <mxPoint x="310" y="280" />
            </Array>
          </mxGeometry>
        </mxCell>
        <mxCell id="UOtR4pTKD2B5xCV6HIKC-28" value="Web UI" style="rounded=0;whiteSpace=wrap;html=1;" vertex="1" parent="1">
          <mxGeometry x="105" y="350" width="120" height="60" as="geometry" />
        </mxCell>
        <mxCell id="UOtR4pTKD2B5xCV6HIKC-31" value="" style="endArrow=classic;startArrow=classic;html=1;rounded=0;entryX=0.5;entryY=1;entryDx=0;entryDy=0;exitX=0;exitY=0.5;exitDx=0;exitDy=0;" edge="1" parent="1" source="UOtR4pTKD2B5xCV6HIKC-13" target="UOtR4pTKD2B5xCV6HIKC-6">
          <mxGeometry width="50" height="50" relative="1" as="geometry">
            <mxPoint x="270" y="230" as="sourcePoint" />
            <mxPoint x="320" y="180" as="targetPoint" />
            <Array as="points">
              <mxPoint x="310" y="280" />
            </Array>
          </mxGeometry>
        </mxCell>
        <mxCell id="UOtR4pTKD2B5xCV6HIKC-35" value="DB" style="shape=cylinder3;whiteSpace=wrap;html=1;boundedLbl=1;backgroundOutline=1;size=15;" vertex="1" parent="1">
          <mxGeometry x="770" y="60" width="60" height="80" as="geometry" />
        </mxCell>
        <mxCell id="UOtR4pTKD2B5xCV6HIKC-36" style="edgeStyle=orthogonalEdgeStyle;rounded=0;orthogonalLoop=1;jettySize=auto;html=1;exitX=1;exitY=0.5;exitDx=0;exitDy=0;entryX=0;entryY=0.5;entryDx=0;entryDy=0;entryPerimeter=0;" edge="1" parent="1" source="UOtR4pTKD2B5xCV6HIKC-9" target="UOtR4pTKD2B5xCV6HIKC-35">
          <mxGeometry relative="1" as="geometry" />
        </mxCell>
      </root>
    </mxGraphModel>
  </diagram>
  <diagram id="rHIuAh22X4mgbFAdHs4N" name="Level 2- Account Boarding Service">
    <mxGraphModel dx="1434" dy="738" grid="1" gridSize="10" guides="1" tooltips="1" connect="1" arrows="1" fold="1" page="1" pageScale="1" pageWidth="850" pageHeight="1100" math="0" shadow="0">
      <root>
        <mxCell id="0" />
        <mxCell id="1" parent="0" />
        <mxCell id="6s1_CGWVEKkK1ae5IBIS-3" value="" style="edgeStyle=orthogonalEdgeStyle;rounded=0;orthogonalLoop=1;jettySize=auto;html=1;" edge="1" parent="1" source="6s1_CGWVEKkK1ae5IBIS-1" target="6s1_CGWVEKkK1ae5IBIS-2">
          <mxGeometry relative="1" as="geometry" />
        </mxCell>
        <mxCell id="6s1_CGWVEKkK1ae5IBIS-10" style="edgeStyle=orthogonalEdgeStyle;rounded=0;orthogonalLoop=1;jettySize=auto;html=1;exitX=1;exitY=0.5;exitDx=0;exitDy=0;entryX=0;entryY=0.5;entryDx=0;entryDy=0;" edge="1" parent="1" source="6s1_CGWVEKkK1ae5IBIS-1" target="6s1_CGWVEKkK1ae5IBIS-4">
          <mxGeometry relative="1" as="geometry" />
        </mxCell>
        <mxCell id="6s1_CGWVEKkK1ae5IBIS-11" style="edgeStyle=orthogonalEdgeStyle;rounded=0;orthogonalLoop=1;jettySize=auto;html=1;entryX=0;entryY=0.5;entryDx=0;entryDy=0;" edge="1" parent="1" source="6s1_CGWVEKkK1ae5IBIS-1" target="6s1_CGWVEKkK1ae5IBIS-5">
          <mxGeometry relative="1" as="geometry" />
        </mxCell>
        <mxCell id="6s1_CGWVEKkK1ae5IBIS-12" style="edgeStyle=orthogonalEdgeStyle;rounded=0;orthogonalLoop=1;jettySize=auto;html=1;exitX=0.5;exitY=1;exitDx=0;exitDy=0;entryX=0.5;entryY=0;entryDx=0;entryDy=0;" edge="1" parent="1" source="6s1_CGWVEKkK1ae5IBIS-1" target="6s1_CGWVEKkK1ae5IBIS-13">
          <mxGeometry relative="1" as="geometry">
            <mxPoint x="190" y="350" as="targetPoint" />
          </mxGeometry>
        </mxCell>
        <mxCell id="6s1_CGWVEKkK1ae5IBIS-15" style="edgeStyle=orthogonalEdgeStyle;rounded=0;orthogonalLoop=1;jettySize=auto;html=1;exitX=1;exitY=0.5;exitDx=0;exitDy=0;entryX=0;entryY=0.5;entryDx=0;entryDy=0;" edge="1" parent="1" source="6s1_CGWVEKkK1ae5IBIS-1" target="6s1_CGWVEKkK1ae5IBIS-14">
          <mxGeometry relative="1" as="geometry" />
        </mxCell>
        <mxCell id="6s1_CGWVEKkK1ae5IBIS-1" value="Account Boarding Service" style="rounded=0;whiteSpace=wrap;html=1;" vertex="1" parent="1">
          <mxGeometry x="60" y="160" width="120" height="60" as="geometry" />
        </mxCell>
        <mxCell id="6s1_CGWVEKkK1ae5IBIS-8" style="edgeStyle=orthogonalEdgeStyle;rounded=0;orthogonalLoop=1;jettySize=auto;html=1;exitX=1;exitY=0.5;exitDx=0;exitDy=0;entryX=0;entryY=0.5;entryDx=0;entryDy=0;entryPerimeter=0;" edge="1" parent="1" source="6s1_CGWVEKkK1ae5IBIS-2" target="6s1_CGWVEKkK1ae5IBIS-9">
          <mxGeometry relative="1" as="geometry">
            <mxPoint x="550" y="190" as="targetPoint" />
          </mxGeometry>
        </mxCell>
        <mxCell id="6s1_CGWVEKkK1ae5IBIS-32" style="edgeStyle=orthogonalEdgeStyle;rounded=0;orthogonalLoop=1;jettySize=auto;html=1;exitX=0.5;exitY=0;exitDx=0;exitDy=0;" edge="1" parent="1" source="6s1_CGWVEKkK1ae5IBIS-2">
          <mxGeometry relative="1" as="geometry">
            <mxPoint x="520" y="80" as="targetPoint" />
          </mxGeometry>
        </mxCell>
        <mxCell id="6s1_CGWVEKkK1ae5IBIS-2" value="Rule Processor Service" style="whiteSpace=wrap;html=1;rounded=0;" vertex="1" parent="1">
          <mxGeometry x="320" y="160" width="120" height="60" as="geometry" />
        </mxCell>
        <mxCell id="6s1_CGWVEKkK1ae5IBIS-4" value="Verification Service" style="rounded=0;whiteSpace=wrap;html=1;" vertex="1" parent="1">
          <mxGeometry x="320" y="240" width="120" height="60" as="geometry" />
        </mxCell>
        <mxCell id="6s1_CGWVEKkK1ae5IBIS-5" value="Document Upload Service" style="rounded=0;whiteSpace=wrap;html=1;" vertex="1" parent="1">
          <mxGeometry x="320" y="320" width="120" height="60" as="geometry" />
        </mxCell>
        <mxCell id="6s1_CGWVEKkK1ae5IBIS-23" style="edgeStyle=orthogonalEdgeStyle;rounded=0;orthogonalLoop=1;jettySize=auto;html=1;exitX=1;exitY=0.5;exitDx=0;exitDy=0;" edge="1" parent="1" source="6s1_CGWVEKkK1ae5IBIS-6" target="6s1_CGWVEKkK1ae5IBIS-24">
          <mxGeometry relative="1" as="geometry">
            <mxPoint x="600" y="530" as="targetPoint" />
          </mxGeometry>
        </mxCell>
        <mxCell id="6s1_CGWVEKkK1ae5IBIS-6" value="Notification Service" style="rounded=0;whiteSpace=wrap;html=1;" vertex="1" parent="1">
          <mxGeometry x="320" y="500" width="120" height="60" as="geometry" />
        </mxCell>
        <mxCell id="6s1_CGWVEKkK1ae5IBIS-9" value="DB" style="shape=cylinder3;whiteSpace=wrap;html=1;boundedLbl=1;backgroundOutline=1;size=15;" vertex="1" parent="1">
          <mxGeometry x="620" y="150" width="60" height="80" as="geometry" />
        </mxCell>
        <mxCell id="6s1_CGWVEKkK1ae5IBIS-13" value="Core Banking Solutions" style="rounded=0;whiteSpace=wrap;html=1;" vertex="1" parent="1">
          <mxGeometry x="60" y="360" width="120" height="60" as="geometry" />
        </mxCell>
        <mxCell id="6s1_CGWVEKkK1ae5IBIS-22" style="edgeStyle=orthogonalEdgeStyle;rounded=0;orthogonalLoop=1;jettySize=auto;html=1;" edge="1" parent="1" source="6s1_CGWVEKkK1ae5IBIS-14" target="6s1_CGWVEKkK1ae5IBIS-9">
          <mxGeometry relative="1" as="geometry" />
        </mxCell>
        <mxCell id="6s1_CGWVEKkK1ae5IBIS-14" value="Decision Processor" style="rounded=0;whiteSpace=wrap;html=1;" vertex="1" parent="1">
          <mxGeometry x="320" y="410" width="120" height="60" as="geometry" />
        </mxCell>
        <mxCell id="6s1_CGWVEKkK1ae5IBIS-18" style="edgeStyle=orthogonalEdgeStyle;rounded=0;orthogonalLoop=1;jettySize=auto;html=1;exitX=1;exitY=0.5;exitDx=0;exitDy=0;entryX=0;entryY=0.617;entryDx=0;entryDy=0;entryPerimeter=0;" edge="1" parent="1" source="6s1_CGWVEKkK1ae5IBIS-1" target="6s1_CGWVEKkK1ae5IBIS-6">
          <mxGeometry relative="1" as="geometry">
            <Array as="points">
              <mxPoint x="250" y="190" />
              <mxPoint x="250" y="537" />
            </Array>
          </mxGeometry>
        </mxCell>
        <mxCell id="6s1_CGWVEKkK1ae5IBIS-20" value="S3" style="shape=cylinder3;whiteSpace=wrap;html=1;boundedLbl=1;backgroundOutline=1;size=15;" vertex="1" parent="1">
          <mxGeometry x="570" y="310" width="60" height="80" as="geometry" />
        </mxCell>
        <mxCell id="6s1_CGWVEKkK1ae5IBIS-21" style="edgeStyle=orthogonalEdgeStyle;rounded=0;orthogonalLoop=1;jettySize=auto;html=1;exitX=1;exitY=0.5;exitDx=0;exitDy=0;entryX=0;entryY=0.5;entryDx=0;entryDy=0;entryPerimeter=0;" edge="1" parent="1" source="6s1_CGWVEKkK1ae5IBIS-5" target="6s1_CGWVEKkK1ae5IBIS-20">
          <mxGeometry relative="1" as="geometry" />
        </mxCell>
        <mxCell id="6s1_CGWVEKkK1ae5IBIS-24" value="SNS" style="shape=cylinder3;whiteSpace=wrap;html=1;boundedLbl=1;backgroundOutline=1;size=15;" vertex="1" parent="1">
          <mxGeometry x="580" y="490" width="60" height="80" as="geometry" />
        </mxCell>
        <mxCell id="6s1_CGWVEKkK1ae5IBIS-26" style="edgeStyle=orthogonalEdgeStyle;rounded=0;orthogonalLoop=1;jettySize=auto;html=1;entryX=0;entryY=0.5;entryDx=0;entryDy=0;entryPerimeter=0;" edge="1" parent="1" source="6s1_CGWVEKkK1ae5IBIS-25" target="6s1_CGWVEKkK1ae5IBIS-27">
          <mxGeometry relative="1" as="geometry">
            <mxPoint x="550" y="620" as="targetPoint" />
          </mxGeometry>
        </mxCell>
        <mxCell id="6s1_CGWVEKkK1ae5IBIS-29" style="edgeStyle=orthogonalEdgeStyle;rounded=0;orthogonalLoop=1;jettySize=auto;html=1;exitX=0.5;exitY=0;exitDx=0;exitDy=0;" edge="1" parent="1" source="6s1_CGWVEKkK1ae5IBIS-25" target="6s1_CGWVEKkK1ae5IBIS-24">
          <mxGeometry relative="1" as="geometry" />
        </mxCell>
        <mxCell id="6s1_CGWVEKkK1ae5IBIS-25" value="Batch Service" style="rounded=0;whiteSpace=wrap;html=1;" vertex="1" parent="1">
          <mxGeometry x="320" y="610" width="120" height="60" as="geometry" />
        </mxCell>
        <mxCell id="6s1_CGWVEKkK1ae5IBIS-27" value="DB" style="shape=cylinder3;whiteSpace=wrap;html=1;boundedLbl=1;backgroundOutline=1;size=15;" vertex="1" parent="1">
          <mxGeometry x="580" y="600" width="60" height="80" as="geometry" />
        </mxCell>
        <mxCell id="6s1_CGWVEKkK1ae5IBIS-31" style="edgeStyle=orthogonalEdgeStyle;rounded=0;orthogonalLoop=1;jettySize=auto;html=1;exitX=1;exitY=0.5;exitDx=0;exitDy=0;entryX=0;entryY=0.5;entryDx=0;entryDy=0;" edge="1" parent="1" source="6s1_CGWVEKkK1ae5IBIS-30" target="6s1_CGWVEKkK1ae5IBIS-25">
          <mxGeometry relative="1" as="geometry" />
        </mxCell>
        <mxCell id="6s1_CGWVEKkK1ae5IBIS-30" value="CRON Job" style="rounded=0;whiteSpace=wrap;html=1;" vertex="1" parent="1">
          <mxGeometry x="60" y="610" width="120" height="60" as="geometry" />
        </mxCell>
        <mxCell id="6s1_CGWVEKkK1ae5IBIS-35" value="" style="edgeStyle=orthogonalEdgeStyle;rounded=0;orthogonalLoop=1;jettySize=auto;html=1;" edge="1" parent="1" source="6s1_CGWVEKkK1ae5IBIS-33" target="6s1_CGWVEKkK1ae5IBIS-9">
          <mxGeometry relative="1" as="geometry">
            <mxPoint x="660" y="50" as="targetPoint" />
          </mxGeometry>
        </mxCell>
        <mxCell id="6s1_CGWVEKkK1ae5IBIS-33" value="Rules Engine" style="rounded=1;whiteSpace=wrap;html=1;" vertex="1" parent="1">
          <mxGeometry x="460" y="20" width="120" height="60" as="geometry" />
        </mxCell>
      </root>
    </mxGraphModel>
  </diagram>
</mxfile>
